<?xml version="1.0" encoding="utf-8"?>
<!-- Generator: Adobe Illustrator 24.3.0, SVG Export Plug-In . SVG Version: 6.00 Build 0)  -->
<svg version="1.1" id="Layer_1" xmlns="http://www.w3.org/2000/svg" xmlns:xlink="http://www.w3.org/1999/xlink" x="0px" y="0px"
	 viewBox="0 0 1792.5 311.9" style="enable-background:new 0 0 1792.5 311.9;" xml:space="preserve">
<style type="text/css">
	.st0{fill:#244B5A;}
	.st1{fill:#E75821;}
</style>
<g>
	<path class="st0" d="M1057.5,69.9c-21.1,0-42.1,7.9-61.2,22.9c-11.5-14.6-31.3-22.9-55.5-22.9c-17.7,0-36,6-53.3,17.3v-8.5
		c0-3.3-2.7-6-6-6h-26.7c-3.3,0-6,2.7-6,6v157.8c0,3.3,2.7,6,6,6H884c3.3,0,6-2.7,6-6v-119c11.7-8.5,25.2-13,39.5-13
		c24.8,0,36.3,11.4,36.3,36v96c0,3.3,2.7,6,6,6h29.2c3.3,0,6-2.7,6-6V125.8c0-2.8-0.3-5.5-0.8-8.2c11.8-8.3,26.3-13,40.2-13
		c24.4,0,36.3,11.8,36.3,36v96c0,3.3,2.7,6,6,6h29.2c3.3,0,6-2.7,6-6V133.3C1124,92.4,1100.4,69.9,1057.5,69.9"/>
	<path class="st0" d="M1283.9,159c0,31.5-21.5,53.6-52.3,53.6c-31.8,0-52.3-21.6-52.3-55.1c0-32.5,20.5-53.6,52.3-53.6
		C1262.9,103.9,1283.9,126,1283.9,159 M1231.3,69.9c-55.6,0-94.5,36.3-94.5,88.2c0,52.1,38.3,88.5,93.2,88.5
		c55.7,0,96.1-36.7,96.1-87.3C1326.1,105.8,1288,69.9,1231.3,69.9"/>
	<path class="st0" d="M1494.8,75.4c-1.1-1.7-3-2.7-5-2.7h-27.6c-2.4,0-4.6,1.5-5.6,3.7l-49.8,119.1l-49.5-119.1
		c-0.9-2.3-3.1-3.7-5.6-3.7h-29.5c-2,0-3.9,1-5,2.7c-1.1,1.7-1.3,3.8-0.5,5.7l68.1,157.8c1,2.2,3.1,3.6,5.5,3.6h31.7
		c2.4,0,4.6-1.4,5.5-3.7l67.7-157.8C1496.1,79.2,1496,77.1,1494.8,75.4"/>
	<path class="st0" d="M1528.4,139.5c3.3-22.1,20.1-35.6,45.2-35.6c28.3,0,36.5,18.2,38,35.6H1528.4z M1573,69.9
		c-52.8,0-87,34.6-87,88.2c0,55.4,35.3,88.5,94.5,88.5c21.2,0,44-4.3,61-11.4c2.2-0.9,3.7-3.1,3.7-5.6v-21.6c0-2-1-3.8-2.6-4.9
		c-1.6-1.1-3.7-1.4-5.5-0.8c-19.6,6.9-36.5,10.3-51.6,10.3c-35.4,0-54.7-13.8-57.3-40.9h116.3c3.3,0,6-2.7,6-6v-13.5
		C1650.5,100.6,1621.5,69.9,1573,69.9"/>
	<path class="st0" d="M1738.2,141.1c-18.7-6-30.2-10.3-30.2-20.7c0-4.9,0-17.8,29.1-17.8c12.9,0,26.3,2.7,37.8,7.7
		c1.9,0.8,4,0.6,5.7-0.5c1.7-1.1,2.7-3,2.7-5v-22c0-2.6-1.6-4.8-4-5.7c-6.1-2.2-22.9-7.2-45.3-7.2c-42.7,0-67.2,18.3-67.2,50.3
		c0,36.8,31.2,46.6,54,53.7c18.4,5.8,29.7,9.9,29.7,20c0,9.5-3.5,20.3-31,20.3c-13.9,0-28.6-3.1-46.2-9.7c-1.8-0.7-3.9-0.4-5.6,0.7
		c-1.6,1.1-2.6,3-2.6,5v22.3c0,2.6,1.6,4.9,4.1,5.7c15.6,5.4,34.8,8.5,52.8,8.5c43.6,0,69.7-19.5,69.7-52.1
		C1791.8,158.4,1762.1,148.8,1738.2,141.1"/>
	<path class="st1" d="M98.9,196.5c-23.7,0-35.7-13.9-35.7-41.4c0-25.3,13.7-40.4,36.7-40.4c11.7,0,21.5,2.8,31.3,8.9v62.6
		C119.7,192.9,108.6,196.5,98.9,196.5 M183.6,70.4h-41.4c-4,0-7.2,3.2-7.2,7.2v2.6c-13.4-8.3-30-13.2-45.8-13.2
		C37.1,66.9,2,102.5,2,155.4c0,55.2,31.7,89.4,82.8,89.4c17.1,0,33.4-4.8,47-13.8v6.6c0,13-3.4,25.7-43.9,25.7
		c-17.2,0-34.5-3.4-57.9-11.5c-2.2-0.8-4.7-0.4-6.6,0.9c-1.9,1.4-3,3.6-3,5.9v34.5c0,3.1,2,5.9,5,6.9c21.3,7,44.2,10.4,70,10.4
		c64.2,0,95.4-26.5,95.4-80.9V77.6C190.9,73.6,187.6,70.4,183.6,70.4"/>
	<path class="st1" d="M517.7,200.9c-25.1,0-40.1-16.3-40.1-43.6c0-26.1,15.4-42.3,40.1-42.3c24.9,0,39.8,16.4,39.8,43.9
		C557.5,184.4,541.8,200.9,517.7,200.9 M517.7,66.9c-59.8,0-101.7,37.3-101.7,90.7c0,53.9,40.8,91.6,99.1,91.6
		c60.4,0,104.2-37.9,104.2-90C619.3,103.1,579.4,66.9,517.7,66.9"/>
	<path class="st1" d="M304.9,200.9c-25.1,0-40.1-16.3-40.1-43.6c0-26.1,15.4-42.3,40.1-42.3c24.9,0,39.8,16.4,39.8,43.9
		C344.7,184.4,329.1,200.9,304.9,200.9 M304.9,66.9c-59.8,0-101.6,37.3-101.6,90.7c0,53.9,40.8,91.6,99.1,91.6
		c60.3,0,104.2-37.9,104.2-90C406.5,103.1,366.6,66.9,304.9,66.9"/>
	<path class="st1" d="M762.1,123.7v68.2c-9.5,5.6-21.7,9-32.6,9c-31.1,0-37.6-23-37.6-42.3c0-27.5,14.2-43.9,37.9-43.9
		C741,114.7,751.6,117.6,762.1,123.7 M814.5,2h-45.2c-4,0-7.2,3.2-7.2,7.2v68c-12.8-7.1-26.3-10.3-42.3-10.3
		c-55.2,0-89.4,35.2-89.4,91.9c0,56.4,31.4,90,84.1,90c17.7,0,35.7-5.7,51.1-15.9v4.2c0,4,3.2,7.2,7.2,7.2h41.7c4,0,7.2-3.2,7.2-7.2
		V9.2C821.7,5.2,818.5,2,814.5,2"/>
</g>
</svg>
